<svg width="180" height="180" viewBox="0 0 180 180" fill="none" xmlns="http://www.w3.org/2000/svg">
<rect width="180" height="180" fill="#1C1C1E"/>
<path fill-rule="evenodd" clip-rule="evenodd" d="M114.182 68.5176C108.344 68.5176 103.607 73.241 103.607 79.0735V100.926C103.607 106.759 108.344 111.482 114.182 111.482L136.469 111.482L136.469 104.939L114.182 104.939C111.957 104.939 110.158 103.14 110.158 100.926V79.0735C110.158 76.8598 111.957 75.0606 114.182 75.0606L136.469 75.0606L136.469 68.5177L114.182 68.5176ZM29.8477 68.5176L29.8477 100.926C29.8477 106.759 34.5852 111.482 40.4234 111.482H57.5388V104.939H40.4234C38.1982 104.939 36.3991 103.14 36.3991 100.926L36.3991 68.5176H29.8477ZM63.4272 68.5176V100.926C63.4272 106.759 68.1648 111.482 74.003 111.482H86.3218C92.16 111.482 96.8975 106.759 96.8975 100.926V68.5176H90.3461V100.926C90.3461 103.14 88.547 104.939 86.3218 104.939H74.003C71.7778 104.939 69.9786 103.14 69.9786 100.926V68.5176H63.4272ZM142.827 68.5177V111.482H149.379V74.2173C149.379 71.0668 146.82 68.5177 143.67 68.5177H142.827Z" fill="#F9F9F9"/>
<circle cx="117.541" cy="82.7841" r="3.69309" fill="#FF9F1C"/>
</svg>
