<svg width="56" height="20" viewBox="0 0 56 20" fill="none" xmlns="http://www.w3.org/2000/svg">
<path fill-rule="evenodd" clip-rule="evenodd" d="M39.2577 0C36.5401 -3.36131e-06 34.3347 2.19872 34.3347 4.91372V15.0863C34.3347 17.8013 36.5401 20 39.2577 20L49.632 20L49.6319 16.9543L39.2577 16.9543C38.2219 16.9543 37.3844 16.1167 37.3844 15.0863V4.91372C37.3844 3.88328 38.2219 3.04573 39.2577 3.04573L49.6319 3.04574L49.632 1.36016e-05L39.2577 0ZM0 3.75216e-06L5.02248e-06 15.0863C5.02248e-06 17.8013 2.20534 20 4.92301 20H12.8902V16.9543H4.92301C3.88718 16.9543 3.04969 16.1167 3.04969 15.0863L3.04969 3.75216e-06H0ZM15.6312 3.75216e-06V15.0863C15.6312 17.8013 17.8366 20 20.5542 20H26.2886C29.0063 20 31.2116 17.8013 31.2116 15.0863V3.75216e-06H28.1619V15.0863C28.1619 16.1167 27.3245 16.9543 26.2886 16.9543H20.5542C19.5184 16.9543 18.6809 16.1167 18.6809 15.0863V3.75216e-06H15.6312ZM52.592 1.45396e-05V20H55.6416V2.65316C55.6416 1.18665 54.4506 1.45396e-05 52.9841 1.45396e-05H52.592Z" fill="white"/>
<circle cx="40.7504" cy="6.41639" r="1.71913" fill="#EF6915"/>
</svg>
